<svg xmlns="http://www.w3.org/2000/svg" viewBox="0 0 900 380" font-family="'Segoe UI',system-ui,sans-serif">
  <defs>
    <linearGradient id="bg2" x1="0" y1="0" x2="0" y2="1"><stop offset="0%" stop-color="#0a0e14"/><stop offset="100%" stop-color="#0f151e"/></linearGradient>
    <filter id="glow2"><feGaussianBlur stdDeviation="1.5" result="blur"/><feMerge><feMergeNode in="blur"/><feMergeNode in="SourceGraphic"/></feMerge></filter>
  </defs>
  <rect width="900" height="380" fill="url(#bg2)"/>
  <text x="450" y="28" text-anchor="middle" fill="#00ff88" font-size="14" font-weight="bold" filter="url(#glow2)">KILL CHAIN — FLUJO DE ENGAGEMENT (latencia &lt;6s sensor-to-shooter)</text>
  <line x1="50" y1="38" x2="850" y2="38" stroke="#00ff88" stroke-width="0.5" opacity="0.3"/>
  <g transform="translate(30,55)">
    <rect width="100" height="70" rx="5" fill="#1a3a5c" stroke="#3a8fd4" stroke-width="1.5"/>
    <text x="50" y="22" text-anchor="middle" fill="#8ec8f0" font-size="10" font-weight="bold">DETECT</text>
    <text x="50" y="38" text-anchor="middle" fill="#5a9ec4" font-size="8">Radar AESA</text>
    <text x="50" y="50" text-anchor="middle" fill="#5a9ec4" font-size="8">6km range</text>
    <text x="50" y="64" text-anchor="middle" fill="#00ff88" font-size="9" font-weight="bold">t=0.0s</text>
  </g>
  <polygon points="135,90 150,85 150,95" fill="#3a8fd4"/>
  <line x1="135" y1="90" x2="150" y2="90" stroke="#3a8fd4" stroke-width="1.5"/>
  <g transform="translate(155,55)">
    <rect width="100" height="70" rx="5" fill="#1a3a5c" stroke="#3a8fd4" stroke-width="1.5"/>
    <text x="50" y="22" text-anchor="middle" fill="#8ec8f0" font-size="10" font-weight="bold">TRACK</text>
    <text x="50" y="38" text-anchor="middle" fill="#5a9ec4" font-size="8">IMM/JPDAF</text>
    <text x="50" y="50" text-anchor="middle" fill="#5a9ec4" font-size="8">Fusion multi</text>
    <text x="50" y="64" text-anchor="middle" fill="#00ff88" font-size="9" font-weight="bold">t=0.3s</text>
  </g>
  <polygon points="260,90 275,85 275,95" fill="#3a8fd4"/>
  <line x1="260" y1="90" x2="275" y2="90" stroke="#3a8fd4" stroke-width="1.5"/>
  <g transform="translate(280,55)">
    <rect width="100" height="70" rx="5" fill="#1a4a2e" stroke="#00ff88" stroke-width="1.5"/>
    <text x="50" y="22" text-anchor="middle" fill="#66ffaa" font-size="10" font-weight="bold">CLASSIFY</text>
    <text x="50" y="38" text-anchor="middle" fill="#44cc88" font-size="8">DINOv2+LoRA</text>
    <text x="50" y="50" text-anchor="middle" fill="#44cc88" font-size="8">IFF check</text>
    <text x="50" y="64" text-anchor="middle" fill="#00ff88" font-size="9" font-weight="bold">t=1.2s</text>
  </g>
  <polygon points="385,90 400,85 400,95" fill="#00ff88"/>
  <line x1="385" y1="90" x2="400" y2="90" stroke="#00ff88" stroke-width="1.5"/>
  <g transform="translate(405,55)">
    <rect width="100" height="70" rx="5" fill="#1a4a2e" stroke="#00ff88" stroke-width="1.5"/>
    <text x="50" y="22" text-anchor="middle" fill="#66ffaa" font-size="10" font-weight="bold">DECIDE</text>
    <text x="50" y="38" text-anchor="middle" fill="#44cc88" font-size="8">WTA + LLM</text>
    <text x="50" y="50" text-anchor="middle" fill="#44cc88" font-size="8">ROE/OPA</text>
    <text x="50" y="64" text-anchor="middle" fill="#00ff88" font-size="9" font-weight="bold">t=2.0s</text>
  </g>
  <polygon points="510,90 525,85 525,95" fill="#ffaa00"/>
  <line x1="510" y1="90" x2="525" y2="90" stroke="#ffaa00" stroke-width="1.5"/>
  <g transform="translate(530,55)">
    <rect width="100" height="70" rx="5" fill="#4a3a0a" stroke="#ffaa00" stroke-width="1.5"/>
    <text x="50" y="22" text-anchor="middle" fill="#ffcc44" font-size="10" font-weight="bold">AUTHORIZE</text>
    <text x="50" y="38" text-anchor="middle" fill="#cc9922" font-size="8">Humano MHC</text>
    <text x="50" y="50" text-anchor="middle" fill="#cc9922" font-size="8">PIN+FIDO2</text>
    <text x="50" y="64" text-anchor="middle" fill="#ffaa00" font-size="9" font-weight="bold">t=3.0s</text>
  </g>
  <polygon points="635,90 650,85 650,95" fill="#ff4444"/>
  <line x1="635" y1="90" x2="650" y2="90" stroke="#ff4444" stroke-width="1.5"/>
  <g transform="translate(655,55)">
    <rect width="100" height="70" rx="5" fill="#4a1a1a" stroke="#ff4444" stroke-width="1.5"/>
    <text x="50" y="22" text-anchor="middle" fill="#ff9999" font-size="10" font-weight="bold">ENGAGE</text>
    <text x="50" y="38" text-anchor="middle" fill="#cc6666" font-size="8">MAVLink2</text>
    <text x="50" y="50" text-anchor="middle" fill="#cc6666" font-size="8">Enjambre</text>
    <text x="50" y="64" text-anchor="middle" fill="#ff4444" font-size="9" font-weight="bold">t=3.2s</text>
  </g>
  <polygon points="760,90 775,85 775,95" fill="#ff4444"/>
  <line x1="760" y1="90" x2="775" y2="90" stroke="#ff4444" stroke-width="1.5"/>
  <g transform="translate(780,55)">
    <rect width="90" height="70" rx="5" fill="#4a1a1a" stroke="#ff4444" stroke-width="1.5"/>
    <text x="45" y="22" text-anchor="middle" fill="#ff9999" font-size="10" font-weight="bold">KILL</text>
    <text x="45" y="38" text-anchor="middle" fill="#cc6666" font-size="8">VLM terminal</text>
    <text x="45" y="50" text-anchor="middle" fill="#cc6666" font-size="8">Pk≥0.7</text>
    <text x="45" y="64" text-anchor="middle" fill="#ff4444" font-size="9" font-weight="bold">t=8.5s</text>
  </g>
  <rect x="30" y="150" width="840" height="90" rx="5" fill="#0d1520" stroke="#3a8fd4" stroke-width="0.5" opacity="0.8"/>
  <text x="450" y="170" text-anchor="middle" fill="#6cb4ee" font-size="11" font-weight="bold">INFRAESTRUCTURA C2</text>
  <g transform="translate(50,180)" font-size="9" fill="#5a9ec4">
    <text x="0" y="12">Redpanda (Kafka)</text>
    <text x="0" y="26">PostgreSQL+TimescaleDB</text>
    <text x="0" y="40">Redis 7</text>
    <text x="160" y="12">mTLS rustls+SPIRE</text>
    <text x="160" y="26">OPA Rego (ROE)</text>
    <text x="160" y="40">HSM Ed25519 (audit)</text>
    <text x="340" y="12">Prometheus+Grafana</text>
    <text x="340" y="26">Jaeger (OTLP)</text>
    <text x="340" y="40">MLflow+DVC+MinIO</text>
    <text x="520" y="12">WebAuthn FIDO2</text>
    <text x="520" y="26">Argon2id OWASP</text>
    <text x="520" y="40">JWT RS256 (15min)</text>
    <text x="680" y="12">Docker multi-stage</text>
    <text x="680" y="26">seccomp+AppArmor</text>
    <text x="680" y="40">SBOM CycloneDX</text>
  </g>
  <rect x="30" y="258" width="840" height="100" rx="5" fill="#0d1520" stroke="#00ff88" stroke-width="0.5" opacity="0.8"/>
  <text x="450" y="278" text-anchor="middle" fill="#00ff88" font-size="11" font-weight="bold">SEGURIDAD Y COMPLIANCE</text>
  <g transform="translate(50,290)" font-size="9" fill="#44cc88">
    <text x="0" y="12">Artículo 36 PA-I (LAWS)</text>
    <text x="0" y="26">MHC (Meaningful Human Control)</text>
    <text x="0" y="40">DIH / Derecho Internacional</text>
    <text x="0" y="54">Geocercas (hospitales, escuelas)</text>
    <text x="240" y="12">5 niveles autorización (VIGILANTE→JEFE_FUEGO)</text>
    <text x="240" y="26">Cadena Merkle inmutable (append-only)</text>
    <text x="240" y="40">PQC ready: Kyber768+Dilithium3</text>
    <text x="240" y="54">STANAG 4586 / Link 16 / ADatP-3</text>
    <text x="540" y="12">Chaos Engineering (8 experimentos)</text>
    <text x="540" y="26">Cobertura tests >70%</text>
    <text x="540" y="40">CI/CD: SAST+SBOM+gitleaks</text>
    <text x="540" y="54">Redpanda SASL/TLS+ACLs</text>
  </g>
</svg>
